<?xml version="1.0" encoding="utf-8"?>
<!-- Generator: Adobe Illustrator 15.0.0, SVG Export Plug-In . SVG Version: 6.00 Build 0)  -->
<!DOCTYPE svg PUBLIC "-//W3C//DTD SVG 1.1//EN" "http://www.w3.org/Graphics/SVG/1.1/DTD/svg11.dtd">
<svg version="1.1" id="Layer_1" xmlns="http://www.w3.org/2000/svg" xmlns:xlink="http://www.w3.org/1999/xlink" x="0px" y="0px"
	 width="57.6px" height="36px" viewBox="0 0 57.6 36" enable-background="new 0 0 57.6 36" xml:space="preserve">
<desc>
	<referenceFile>prefix0000_7465e6be770c8c011710fcb8c73583ea_3_schematic.svg</referenceFile>
</desc>
<g id="schematic">
	
		<rect x="14.85" y="0.45" fill="#FFFFFF" stroke="#000000" stroke-width="0.3175" stroke-linecap="round" width="27.901" height="35.1"/>
	
		<line id="connector7pin" fill="none" stroke="#787878" stroke-width="0.2469" stroke-linecap="round" x1="42.851" y1="7.2" x2="57.251" y2="7.2"/>
	<text transform="matrix(1 0 0 1 49.3625 6.1504)" fill="#8C8C8C" font-family="'DroidSans'" font-size="2.5">8</text>
	<text transform="matrix(1 0 0 1 34.5051 7.9004)" fill="#8C8C8C" font-family="'DroidSans'" font-size="3.5">SS</text>
	<rect id="connector7terminal" x="57.251" y="6.85" fill="none" width="0.699" height="0.7"/>
	
		<line id="connector6pin" fill="none" stroke="#787878" stroke-width="0.2469" stroke-linecap="round" x1="42.851" y1="14.4" x2="57.251" y2="14.4"/>
	<text transform="matrix(1 0 0 1 49.3625 13.3496)" fill="#8C8C8C" font-family="'DroidSans'" font-size="2.5">7</text>
	<text transform="matrix(1 0 0 1 34.5051 15.1006)" fill="#8C8C8C" font-family="'DroidSans'" font-size="3.5">MO</text>
	<rect id="connector6terminal" x="57.251" y="14.05" fill="none" width="0.699" height="0.7"/>
	
		<line id="connector5pin" fill="none" stroke="#787878" stroke-width="0.2469" stroke-linecap="round" x1="42.851" y1="21.6" x2="57.251" y2="21.6"/>
	<text transform="matrix(1 0 0 1 49.3625 20.5498)" fill="#8C8C8C" font-family="'DroidSans'" font-size="2.5">6</text>
	<text transform="matrix(1 0 0 1 34.5051 22.2988)" fill="#8C8C8C" font-family="'DroidSans'" font-size="3.5">SC</text>
	<rect id="connector5terminal" x="57.251" y="21.25" fill="none" width="0.699" height="0.7"/>
	
		<line id="connector4pin" fill="none" stroke="#787878" stroke-width="0.2469" stroke-linecap="round" x1="42.851" y1="28.8" x2="57.251" y2="28.8"/>
	<text transform="matrix(1 0 0 1 49.3625 27.751)" fill="#8C8C8C" font-family="'DroidSans'" font-size="2.5">5</text>
	<text transform="matrix(1 0 0 1 34.5051 29.5)" fill="#8C8C8C" font-family="'DroidSans'" font-size="3.5">MI</text>
	<rect id="connector4terminal" x="57.251" y="28.45" fill="none" width="0.699" height="0.7"/>
	
		<line id="connector0pin" fill="none" stroke="#787878" stroke-width="0.2469" stroke-linecap="round" x1="0.35" y1="7.2" x2="14.751" y2="7.2"/>
	<text transform="matrix(1 0 0 1 6.8625 6.1504)" fill="#8C8C8C" font-family="'DroidSans'" font-size="2.5">1</text>
	<text transform="matrix(1 0 0 1 16.1492 7.9004)" fill="#8C8C8C" font-family="'DroidSans'" font-size="3.5">MOT</text>
	<rect id="connector0terminal" x="-0.35" y="6.85" fill="none" width="0.7" height="0.7"/>
	
		<line id="connector1pin" fill="none" stroke="#787878" stroke-width="0.2469" stroke-linecap="round" x1="0.35" y1="14.4" x2="14.751" y2="14.4"/>
	<text transform="matrix(1 0 0 1 6.8625 13.3496)" fill="#8C8C8C" font-family="'DroidSans'" font-size="2.5">2</text>
	<text transform="matrix(1 0 0 1 16.1492 15.1006)" fill="#8C8C8C" font-family="'DroidSans'" font-size="3.5">DG</text>
	<rect id="connector1terminal" x="-0.35" y="14.05" fill="none" width="0.7" height="0.7"/>
	
		<line id="connector2pin" fill="none" stroke="#787878" stroke-width="0.2469" stroke-linecap="round" x1="0.35" y1="21.6" x2="14.751" y2="21.6"/>
	<text transform="matrix(1 0 0 1 6.8625 20.5498)" fill="#8C8C8C" font-family="'DroidSans'" font-size="2.5">3</text>
	<text transform="matrix(1 0 0 1 16.1492 22.2988)" fill="#8C8C8C" font-family="'DroidSans'" font-size="3.5">AG</text>
	<rect id="connector2terminal" x="-0.35" y="21.25" fill="none" width="0.7" height="0.7"/>
	
		<line id="connector3pin" fill="none" stroke="#787878" stroke-width="0.2469" stroke-linecap="round" x1="0.35" y1="28.8" x2="14.751" y2="28.8"/>
	<text transform="matrix(1 0 0 1 6.8625 27.751)" fill="#8C8C8C" font-family="'DroidSans'" font-size="2.5">4</text>
	<text transform="matrix(1 0 0 1 16.1492 29.5)" fill="#8C8C8C" font-family="'DroidSans'" font-size="3.5">VI</text>
	<rect id="connector3terminal" x="-0.35" y="28.45" fill="none" width="0.7" height="0.7"/>
	<text transform="matrix(1 0 0 1 23.7468 13.3496)" font-family="'DroidSans'" font-size="3">ADNS</text>
	<text transform="matrix(1 0 0 1 23.7468 18.4492)" font-family="'DroidSans'" font-size="3"> 9800</text>
</g>
</svg>
