<?xml version="1.0" encoding="UTF-8" standalone="no"?>
<!-- Created with Fritzing (http://www.fritzing.org/) -->

<svg
   xmlns:dc="http://purl.org/dc/elements/1.1/"
   xmlns:cc="http://creativecommons.org/ns#"
   xmlns:rdf="http://www.w3.org/1999/02/22-rdf-syntax-ns#"
   xmlns:svg="http://www.w3.org/2000/svg"
   xmlns="http://www.w3.org/2000/svg"
   xmlns:sodipodi="http://sodipodi.sourceforge.net/DTD/sodipodi-0.dtd"
   xmlns:inkscape="http://www.inkscape.org/namespaces/inkscape"
   version="1.2"
   x="0in"
   y="0in"
   width="1.43701in"
   height="0.70275in"
   viewBox="0 0 103.465 50.598"
   id="svg7611"
   inkscape:version="0.91 r13725"
   sodipodi:docname="teensy32.svg">
  <metadata
     id="metadata7826">
    <rdf:RDF>
      <cc:Work
         rdf:about="">
        <dc:format>image/svg+xml</dc:format>
        <dc:type
           rdf:resource="http://purl.org/dc/dcmitype/StillImage" />
      </cc:Work>
    </rdf:RDF>
  </metadata>
  <defs
     id="defs7824" />
  <sodipodi:namedview
     pagecolor="#ffffff"
     bordercolor="#666666"
     borderopacity="1"
     objecttolerance="10"
     gridtolerance="10"
     guidetolerance="10"
     inkscape:pageopacity="0"
     inkscape:pageshadow="2"
     inkscape:window-width="1301"
     inkscape:window-height="744"
     id="namedview7822"
     showgrid="false"
     inkscape:zoom="5.5885896"
     inkscape:cx="64.665452"
     inkscape:cy="31.623751"
     inkscape:window-x="65"
     inkscape:window-y="24"
     inkscape:window-maximized="1"
     inkscape:current-layer="breadboard" />
  <g
     partID="854128230"
     id="g7613">
    <g
       id="breadboard">
      <path
         id="_x30_.1"
         fill="#1A1A1A"
         d="M2.835,0l0,50.598l100.63,0L103.465,0L2.835,0zM42.349,1.906c0.998,0,1.812,0.813,1.812,1.813s-0.814,1.813,-1.812,1.813c-1,0,-1.812,-0.813,-1.812,-1.813C40.538,2.72,41.349,1.906,42.349,1.906zM42.349,10.133c0.998,0,1.812,0.813,1.812,1.813s-0.813,1.813,-1.812,1.813c-1,0,-1.812,-0.813,-1.812,-1.813C40.538,10.948,41.349,10.133,42.349,10.133zM6.348,48.682c-1,0,-1.812,-0.811,-1.812,-1.811c0,-0.998,0.812,-1.813,1.812,-1.813c0.998,0,1.812,0.813,1.812,1.813S7.346,48.682,6.348,48.682zM6.348,5.531c-1,0,-1.812,-0.813,-1.812,-1.813c0,-0.998,0.812,-1.813,1.812,-1.813c0.998,0,1.812,0.813,1.812,1.813S7.346,5.531,6.348,5.531zM13.549,48.682c-1,0,-1.812,-0.811,-1.812,-1.811c0,-0.998,0.812,-1.813,1.812,-1.813c0.998,0,1.812,0.813,1.812,1.813S14.547,48.682,13.549,48.682zM13.549,13.758c-1,0,-1.812,-0.813,-1.812,-1.813c0,-0.994,0.812,-1.813,1.812,-1.813c0.998,0,1.812,0.813,1.812,1.813S14.547,13.758,13.549,13.758zM13.549,5.531c-1,0,-1.812,-0.813,-1.812,-1.813c0,-0.998,0.812,-1.813,1.812,-1.813c0.998,0,1.812,0.813,1.812,1.813S14.547,5.531,13.549,5.531zM20.749,48.682c-1,0,-1.812,-0.811,-1.812,-1.811c0,-0.998,0.812,-1.813,1.812,-1.813c0.998,0,1.812,0.813,1.812,1.813S21.747,48.682,20.749,48.682zM20.749,5.531c-1,0,-1.812,-0.813,-1.812,-1.813c0,-0.998,0.812,-1.813,1.812,-1.813c0.998,0,1.812,0.813,1.812,1.813S21.747,5.531,20.749,5.531zM27.949,48.682c-1,0,-1.812,-0.811,-1.812,-1.811c0,-0.998,0.812,-1.813,1.812,-1.813c0.998,0,1.812,0.813,1.812,1.813S28.947,48.682,27.949,48.682zM27.949,13.758c-1,0,-1.812,-0.813,-1.812,-1.813c0,-0.994,0.812,-1.813,1.812,-1.813c0.998,0,1.812,0.813,1.812,1.813S28.947,13.758,27.949,13.758zM27.949,5.531c-1,0,-1.812,-0.813,-1.812,-1.813c0,-0.998,0.812,-1.813,1.812,-1.813c0.998,0,1.812,0.813,1.812,1.813S28.947,5.531,27.949,5.531zM35.149,48.682c-1,0,-1.812,-0.811,-1.812,-1.811c0,-0.998,0.812,-1.813,1.812,-1.813c0.998,0,1.812,0.813,1.812,1.813S36.147,48.682,35.149,48.682zM35.149,13.758c-1,0,-1.812,-0.813,-1.812,-1.813c0,-0.994,0.812,-1.813,1.812,-1.813c0.998,0,1.812,0.813,1.812,1.813S36.147,13.758,35.149,13.758zM35.149,5.531c-1,0,-1.812,-0.813,-1.812,-1.813c0,-0.998,0.812,-1.813,1.812,-1.813c0.998,0,1.812,0.813,1.812,1.813S36.147,5.531,35.149,5.531zM39.087,22.723c0,-0.533,0.433,-0.968,0.967,-0.968c0.533,0,0.968,0.434,0.968,0.968s-0.435,0.968,-0.968,0.968C39.52,23.69,39.087,23.257,39.087,22.723zM42.349,48.682c-1,0,-1.812,-0.811,-1.812,-1.811c0,-0.998,0.812,-1.813,1.812,-1.813c0.998,0,1.812,0.813,1.812,1.813S43.347,48.682,42.349,48.682zM43.901,23.69c-0.534,0,-0.968,-0.434,-0.968,-0.968c0,-0.533,0.434,-0.968,0.968,-0.968c0.533,0,0.967,0.434,0.967,0.968S44.433,23.69,43.901,23.69zM49.55,48.682c-1,0,-1.812,-0.811,-1.812,-1.811c0,-0.998,0.812,-1.813,1.812,-1.813c0.998,0,1.812,0.813,1.812,1.813S50.548,48.682,49.55,48.682zM49.55,5.531c-1,0,-1.812,-0.813,-1.812,-1.813c0,-0.998,0.812,-1.813,1.812,-1.813c0.998,0,1.812,0.813,1.812,1.813S50.548,5.531,49.55,5.531zM56.75,48.682c-1,0,-1.813,-0.811,-1.813,-1.811c0,-0.998,0.813,-1.813,1.813,-1.813c0.998,0,1.813,0.813,1.813,1.813S57.748,48.682,56.75,48.682zM56.75,5.531c-1,0,-1.813,-0.813,-1.813,-1.813c0,-0.998,0.813,-1.813,1.813,-1.813c0.998,0,1.813,0.813,1.813,1.813S57.748,5.531,56.75,5.531zM63.95,48.682c-1,0,-1.812,-0.811,-1.812,-1.811c0,-0.998,0.812,-1.813,1.812,-1.813c0.997,0,1.812,0.813,1.812,1.813S64.947,48.682,63.95,48.682zM63.95,5.531c-1,0,-1.812,-0.813,-1.812,-1.813c0,-0.998,0.812,-1.813,1.812,-1.813c0.997,0,1.812,0.813,1.812,1.813S64.947,5.531,63.95,5.531zM71.15,48.682c-1,0,-1.813,-0.811,-1.813,-1.811c0,-0.998,0.813,-1.813,1.813,-1.813c0.998,0,1.812,0.813,1.812,1.813S72.148,48.682,71.15,48.682zM71.15,5.531c-1,0,-1.813,-0.813,-1.813,-1.813c0,-0.998,0.813,-1.813,1.813,-1.813c0.998,0,1.812,0.813,1.812,1.813S72.148,5.531,71.15,5.531zM78.352,48.682c-1,0,-1.813,-0.811,-1.813,-1.811c0,-0.998,0.813,-1.813,1.813,-1.813c0.998,0,1.813,0.813,1.813,1.813S79.35,48.682,78.352,48.682zM78.352,5.531c-1,0,-1.813,-0.813,-1.813,-1.813c0,-0.998,0.813,-1.813,1.813,-1.813c0.998,0,1.813,0.813,1.813,1.813S79.35,5.531,78.352,5.531zM85.551,48.682c-1,0,-1.811,-0.811,-1.811,-1.811c0,-0.998,0.811,-1.813,1.811,-1.813c0.998,0,1.813,0.813,1.813,1.813S86.549,48.682,85.551,48.682zM85.551,5.531c-1,0,-1.811,-0.813,-1.811,-1.813c0,-0.998,0.811,-1.813,1.811,-1.813c0.998,0,1.813,0.813,1.813,1.813S86.549,5.531,85.551,5.531zM92.752,48.682c-1,0,-1.813,-0.811,-1.813,-1.811c0,-0.998,0.813,-1.813,1.813,-1.813c0.998,0,1.811,0.813,1.811,1.813S93.75,48.682,92.752,48.682zM92.752,5.531c-1,0,-1.813,-0.813,-1.813,-1.813c0,-0.998,0.813,-1.813,1.813,-1.813c0.998,0,1.811,0.813,1.811,1.813S93.75,5.531,92.752,5.531zM99.951,48.682c-1,0,-1.811,-0.811,-1.811,-1.811c0,-0.998,0.811,-1.813,1.811,-1.813c0.998,0,1.813,0.813,1.813,1.813S100.949,48.682,99.951,48.682zM99.951,41.531c-1,0,-1.811,-0.813,-1.811,-1.813c0,-0.998,0.811,-1.813,1.811,-1.813c0.998,0,1.813,0.813,1.813,1.813S100.949,41.531,99.951,41.531zM99.951,34.331c-1,0,-1.811,-0.813,-1.811,-1.813c0,-0.998,0.811,-1.813,1.811,-1.813c0.998,0,1.813,0.813,1.813,1.813S100.949,34.331,99.951,34.331zM99.951,27.129c-1,0,-1.811,-0.813,-1.811,-1.813c0,-0.998,0.811,-1.813,1.811,-1.813c0.998,0,1.813,0.813,1.813,1.813S100.949,27.129,99.951,27.129zM99.951,19.93c-1,0,-1.811,-0.811,-1.811,-1.811c0,-0.998,0.811,-1.813,1.811,-1.813c0.998,0,1.813,0.813,1.813,1.813S100.949,19.93,99.951,19.93zM99.951,12.729c-1,0,-1.811,-0.811,-1.811,-1.811c0,-0.998,0.811,-1.813,1.811,-1.813c0.998,0,1.813,0.813,1.813,1.813S100.949,12.729,99.951,12.729zM99.951,5.531c-1,0,-1.811,-0.813,-1.811,-1.813c0,-0.998,0.811,-1.813,1.811,-1.813c0.998,0,1.813,0.813,1.813,1.813S100.949,5.531,99.951,5.531z" />
      <g
         id="_x30_.2">
        <g
           id="_x30_.2.0">
          <g
             id="_x30_.2.0.0">
            <path
               id="_x30_.2.0.0.0"
               fill="#9A916C"
               d="M6.348,1.167c-1.405,0,-2.554,1.146,-2.554,2.555c0,1.406,1.146,2.555,2.554,2.555c1.408,0,2.554,-1.146,2.554,-2.555C8.901,2.313,7.757,1.167,6.348,1.167zM6.348,5.531c-1,0,-1.812,-0.813,-1.812,-1.813c0,-0.998,0.812,-1.813,1.812,-1.813c0.998,0,1.812,0.813,1.812,1.813S7.346,5.531,6.348,5.531z" />
          </g>
          <g
             id="_x30_.2.0.1">
            <path
               id="_x30_.2.0.1.0"
               fill="#9A916C"
               d="M13.549,1.167c-1.405,0,-2.554,1.146,-2.554,2.555c0,1.406,1.146,2.555,2.554,2.555c1.408,0,2.554,-1.146,2.554,-2.555C16.101,2.313,14.957,1.167,13.549,1.167zM13.549,5.531c-1,0,-1.812,-0.813,-1.812,-1.813c0,-0.998,0.812,-1.813,1.812,-1.813c0.998,0,1.812,0.813,1.812,1.813S14.547,5.531,13.549,5.531z" />
          </g>
          <g
             id="_x30_.2.0.2">
            <path
               id="_x30_.2.0.2.0"
               fill="#9A916C"
               d="M20.749,1.167c-1.405,0,-2.554,1.146,-2.554,2.555c0,1.406,1.146,2.555,2.554,2.555s2.554,-1.146,2.554,-2.555C23.302,2.313,22.157,1.167,20.749,1.167zM20.749,5.531c-1,0,-1.812,-0.813,-1.812,-1.813c0,-0.998,0.812,-1.813,1.812,-1.813c0.998,0,1.812,0.813,1.812,1.813S21.747,5.531,20.749,5.531z" />
          </g>
          <g
             id="_x30_.2.0.3">
            <path
               id="_x30_.2.0.3.0"
               fill="#9A916C"
               d="M27.949,1.167c-1.405,0,-2.554,1.146,-2.554,2.555c0,1.406,1.146,2.555,2.554,2.555c1.408,0,2.554,-1.146,2.554,-2.555C30.502,2.313,29.357,1.167,27.949,1.167zM27.949,5.531c-1,0,-1.812,-0.813,-1.812,-1.813c0,-0.998,0.812,-1.813,1.812,-1.813c0.998,0,1.812,0.813,1.812,1.813S28.947,5.531,27.949,5.531z" />
          </g>
          <g
             id="_x30_.2.0.4">
            <path
               id="_x30_.2.0.4.0"
               fill="#9A916C"
               d="M35.149,1.167c-1.405,0,-2.554,1.146,-2.554,2.555c0,1.406,1.146,2.555,2.554,2.555c1.408,0,2.554,-1.146,2.554,-2.555C37.702,2.313,36.557,1.167,35.149,1.167zM35.149,5.531c-1,0,-1.812,-0.813,-1.812,-1.813c0,-0.998,0.812,-1.813,1.812,-1.813c0.998,0,1.812,0.813,1.812,1.813S36.147,5.531,35.149,5.531z" />
          </g>
          <g
             id="_x30_.2.0.5">
            <path
               id="_x30_.2.0.5.0"
               fill="#9A916C"
               d="M42.349,1.167c-1.405,0,-2.554,1.146,-2.554,2.555c0,1.406,1.146,2.555,2.554,2.555c1.408,0,2.554,-1.146,2.554,-2.555C44.902,2.313,43.758,1.167,42.349,1.167zM42.349,5.531c-1,0,-1.812,-0.813,-1.812,-1.813c0,-0.998,0.812,-1.813,1.812,-1.813c0.998,0,1.812,0.813,1.812,1.813S43.347,5.531,42.349,5.531z" />
          </g>
          <g
             id="_x30_.2.0.6">
            <path
               id="_x30_.2.0.6.0"
               fill="#9A916C"
               d="M49.55,1.167c-1.405,0,-2.554,1.146,-2.554,2.555c0,1.406,1.146,2.555,2.554,2.555c1.408,0,2.554,-1.146,2.554,-2.555C52.102,2.313,50.958,1.167,49.55,1.167zM49.55,5.531c-1,0,-1.812,-0.813,-1.812,-1.813c0,-0.998,0.812,-1.813,1.812,-1.813c0.998,0,1.812,0.813,1.812,1.813S50.548,5.531,49.55,5.531z" />
          </g>
          <g
             id="_x30_.2.0.7">
            <path
               id="_x30_.2.0.7.0"
               fill="#9A916C"
               d="M56.75,1.167c-1.404,0,-2.555,1.146,-2.555,2.555c0,1.406,1.146,2.555,2.555,2.555s2.555,-1.146,2.555,-2.555C59.303,2.313,58.158,1.167,56.75,1.167zM56.75,5.531c-1,0,-1.813,-0.813,-1.813,-1.813c0,-0.998,0.813,-1.813,1.813,-1.813c0.998,0,1.813,0.813,1.813,1.813S57.748,5.531,56.75,5.531z" />
          </g>
          <g
             id="_x30_.2.0.8">
            <path
               id="_x30_.2.0.8.0"
               fill="#9A916C"
               d="M63.95,1.167c-1.405,0,-2.554,1.146,-2.554,2.555c0,1.406,1.146,2.555,2.554,2.555c1.407,0,2.554,-1.146,2.554,-2.555C66.503,2.313,65.357,1.167,63.95,1.167zM63.95,5.531c-1,0,-1.812,-0.813,-1.812,-1.813c0,-0.998,0.812,-1.813,1.812,-1.813c0.997,0,1.812,0.813,1.812,1.813S64.947,5.531,63.95,5.531z" />
          </g>
          <g
             id="_x30_.2.0.9">
            <path
               id="_x30_.2.0.9.0"
               fill="#9A916C"
               d="M71.15,1.167c-1.405,0,-2.555,1.146,-2.555,2.555c0,1.406,1.146,2.555,2.555,2.555c1.408,0,2.554,-1.146,2.554,-2.555C73.703,2.313,72.559,1.167,71.15,1.167zM71.15,5.531c-1,0,-1.813,-0.813,-1.813,-1.813c0,-0.998,0.813,-1.813,1.813,-1.813c0.998,0,1.812,0.813,1.812,1.813S72.148,5.531,71.15,5.531z" />
          </g>
          <g
             id="_x30_.2.0.10">
            <path
               id="_x30_.2.0.10.0"
               fill="#9A916C"
               d="M78.352,1.167c-1.406,0,-2.555,1.146,-2.555,2.555c0,1.406,1.146,2.555,2.555,2.555c1.41,0,2.553,-1.146,2.553,-2.555S79.76,1.167,78.352,1.167zM78.352,5.531c-1,0,-1.813,-0.813,-1.813,-1.813c0,-0.998,0.813,-1.813,1.813,-1.813c0.998,0,1.813,0.813,1.813,1.813S79.35,5.531,78.352,5.531z" />
          </g>
          <g
             id="_x30_.2.0.11">
            <path
               id="_x30_.2.0.11.0"
               fill="#9A916C"
               d="M85.551,1.167c-1.404,0,-2.553,1.146,-2.553,2.555c0,1.406,1.146,2.555,2.553,2.555c1.408,0,2.555,-1.146,2.555,-2.555C88.104,2.313,86.959,1.167,85.551,1.167zM85.551,5.531c-1,0,-1.811,-0.813,-1.811,-1.813c0,-0.998,0.811,-1.813,1.811,-1.813c0.998,0,1.813,0.813,1.813,1.813S86.549,5.531,85.551,5.531z" />
          </g>
          <g
             id="_x30_.2.0.12">
            <path
               id="_x30_.2.0.12.0"
               fill="#9A916C"
               d="M92.752,1.167c-1.406,0,-2.555,1.146,-2.555,2.555c0,1.406,1.146,2.555,2.555,2.555s2.553,-1.146,2.553,-2.555S94.16,1.167,92.752,1.167zM92.752,5.531c-1,0,-1.813,-0.813,-1.813,-1.813c0,-0.998,0.813,-1.813,1.813,-1.813c0.998,0,1.811,0.813,1.811,1.813S93.75,5.531,92.752,5.531z" />
          </g>
          <g
             id="_x30_.2.0.13">
            <path
               id="_x30_.2.0.13.0"
               fill="#9A916C"
               d="M99.951,1.167c-1.404,0,-2.553,1.146,-2.553,2.555c0,1.406,1.146,2.555,2.553,2.555c1.408,0,2.555,-1.146,2.555,-2.555C102.504,2.313,101.359,1.167,99.951,1.167zM99.951,5.531c-1,0,-1.811,-0.813,-1.811,-1.813c0,-0.998,0.811,-1.813,1.811,-1.813c0.998,0,1.813,0.813,1.813,1.813S100.949,5.531,99.951,5.531z" />
          </g>
          <g
             id="_x30_.2.0.14">
            <path
               id="_x30_.2.0.14.0"
               fill="#9A916C"
               d="M13.549,9.395c-1.405,0,-2.554,1.146,-2.554,2.559c0,1.402,1.146,2.555,2.554,2.555c1.408,0,2.554,-1.146,2.554,-2.555C16.101,10.541,14.957,9.395,13.549,9.395zM13.549,13.758c-1,0,-1.812,-0.813,-1.812,-1.813c0,-0.994,0.812,-1.813,1.812,-1.813c0.998,0,1.812,0.813,1.812,1.813S14.547,13.758,13.549,13.758z" />
          </g>
          <g
             id="_x30_.2.0.15">
            <path
               id="_x30_.2.0.15.0"
               fill="#9A916C"
               d="M27.949,9.395c-1.405,0,-2.554,1.146,-2.554,2.559c0,1.402,1.146,2.555,2.554,2.555c1.408,0,2.554,-1.146,2.554,-2.555C30.502,10.541,29.357,9.395,27.949,9.395zM27.949,13.758c-1,0,-1.812,-0.813,-1.812,-1.813c0,-0.994,0.812,-1.813,1.812,-1.813c0.998,0,1.812,0.813,1.812,1.813S28.947,13.758,27.949,13.758z" />
          </g>
          <g
             id="_x30_.2.0.16">
            <path
               id="_x30_.2.0.16.0"
               fill="#9A916C"
               d="M35.149,9.395c-1.405,0,-2.554,1.146,-2.554,2.559c0,1.402,1.146,2.555,2.554,2.555c1.408,0,2.554,-1.146,2.554,-2.555C37.702,10.541,36.557,9.395,35.149,9.395zM35.149,13.758c-1,0,-1.812,-0.813,-1.812,-1.813c0,-0.994,0.812,-1.813,1.812,-1.813c0.998,0,1.812,0.813,1.812,1.813S36.147,13.758,35.149,13.758z" />
          </g>
          <g
             id="_x30_.2.0.17">
            <path
               id="_x30_.2.0.17.0"
               fill="#9A916C"
               d="M42.349,9.395c-1.405,0,-2.554,1.146,-2.554,2.559c0,1.402,1.146,2.555,2.554,2.555c1.408,0,2.554,-1.146,2.554,-2.555C44.902,10.541,43.758,9.395,42.349,9.395zM42.349,13.758c-1,0,-1.812,-0.813,-1.812,-1.813c0,-0.994,0.812,-1.813,1.812,-1.813c0.998,0,1.812,0.813,1.812,1.813S43.347,13.758,42.349,13.758z" />
          </g>
          <g
             id="_x30_.2.0.18">
            <path
               id="_x30_.2.0.18.0"
               fill="#9A916C"
               d="M40.054,21.36c-0.75,0,-1.364,0.612,-1.364,1.364c0,0.751,0.612,1.364,1.364,1.364c0.752,0,1.364,-0.612,1.364,-1.364C41.418,21.973,40.807,21.36,40.054,21.36zM40.054,23.69c-0.534,0,-0.967,-0.434,-0.967,-0.968c0,-0.533,0.433,-0.968,0.967,-0.968c0.533,0,0.968,0.434,0.968,0.968S40.588,23.69,40.054,23.69z" />
          </g>
          <g
             id="_x30_.2.0.19">
            <path
               id="_x30_.2.0.19.0"
               fill="#9A916C"
               d="M43.901,21.36c-0.751,0,-1.364,0.612,-1.364,1.364c0,0.751,0.612,1.364,1.364,1.364s1.364,-0.612,1.364,-1.364C45.264,21.973,44.653,21.36,43.901,21.36zM43.901,23.69c-0.534,0,-0.968,-0.434,-0.968,-0.968c0,-0.533,0.434,-0.968,0.968,-0.968c0.533,0,0.967,0.434,0.967,0.968S44.433,23.69,43.901,23.69z" />
          </g>
        </g>
        <g
           id="_x30_.2.1">
          <g
             id="_x30_.2.1.0">
            <path
               id="_x30_.2.1.0.0"
               fill="#9A916C"
               d="M99.951,37.168c-1.404,0,-2.553,1.146,-2.553,2.555c0,1.406,1.146,2.555,2.553,2.555c1.408,0,2.555,-1.146,2.555,-2.555C102.504,38.313,101.359,37.168,99.951,37.168zM99.951,41.531c-1,0,-1.811,-0.813,-1.811,-1.813c0,-0.998,0.811,-1.813,1.811,-1.813c0.998,0,1.813,0.813,1.813,1.813S100.949,41.531,99.951,41.531z" />
          </g>
          <g
             id="_x30_.2.1.1">
            <path
               id="_x30_.2.1.1.0"
               fill="#9A916C"
               d="M99.951,29.969c-1.404,0,-2.553,1.146,-2.553,2.555c0,1.406,1.146,2.559,2.553,2.559c1.408,0,2.555,-1.146,2.555,-2.559C102.504,31.115,101.359,29.969,99.951,29.969zM99.951,34.331c-1,0,-1.811,-0.813,-1.811,-1.813c0,-0.998,0.811,-1.813,1.811,-1.813c0.998,0,1.813,0.813,1.813,1.813S100.949,34.331,99.951,34.331z" />
          </g>
          <g
             id="_x30_.2.1.2">
            <path
               id="_x30_.2.1.2.0"
               fill="#9A916C"
               d="M99.951,22.769c-1.404,0,-2.553,1.146,-2.553,2.559c0,1.402,1.146,2.554,2.553,2.554c1.408,0,2.555,-1.146,2.555,-2.554C102.504,23.913,101.359,22.769,99.951,22.769zM99.951,27.129c-1,0,-1.811,-0.813,-1.811,-1.813c0,-0.998,0.811,-1.813,1.811,-1.813c0.998,0,1.813,0.813,1.813,1.813S100.949,27.129,99.951,27.129z" />
          </g>
          <g
             id="_x30_.2.1.3">
            <path
               id="_x30_.2.1.3.0"
               fill="#9A916C"
               d="M99.951,15.568c-1.404,0,-2.553,1.146,-2.553,2.559c0,1.402,1.146,2.555,2.553,2.555c1.408,0,2.555,-1.146,2.555,-2.555C102.504,16.713,101.359,15.568,99.951,15.568zM99.951,19.93c-1,0,-1.811,-0.811,-1.811,-1.811c0,-0.998,0.811,-1.813,1.811,-1.813c0.998,0,1.813,0.813,1.813,1.813S100.949,19.93,99.951,19.93z" />
          </g>
          <g
             id="_x30_.2.1.4">
            <path
               id="_x30_.2.1.4.0"
               fill="#9A916C"
               d="M99.951,8.368c-1.404,0,-2.553,1.146,-2.553,2.555c0,1.406,1.146,2.555,2.553,2.555c1.408,0,2.555,-1.146,2.555,-2.555C102.504,9.513,101.359,8.368,99.951,8.368zM99.951,12.729c-1,0,-1.811,-0.811,-1.811,-1.811c0,-0.998,0.811,-1.813,1.811,-1.813c0.998,0,1.813,0.813,1.813,1.813S100.949,12.729,99.951,12.729z" />
          </g>
        </g>
        <g
           id="_x30_.2.2">
          <g
             id="_x30_.2.2.0">
            <path
               id="_x30_.2.2.0.0"
               fill="#9A916C"
               d="M6.348,44.321c-1.405,0,-2.554,1.146,-2.554,2.559c0,1.406,1.146,2.555,2.554,2.555c1.408,0,2.554,-1.146,2.554,-2.555C8.901,45.465,7.757,44.321,6.348,44.321zM6.348,48.682c-1,0,-1.812,-0.811,-1.812,-1.811c0,-0.998,0.812,-1.813,1.812,-1.813c0.998,0,1.812,0.813,1.812,1.813S7.346,48.682,6.348,48.682z" />
          </g>
          <g
             id="_x30_.2.2.1">
            <path
               id="_x30_.2.2.1.0"
               fill="#9A916C"
               d="M13.549,44.321c-1.405,0,-2.554,1.146,-2.554,2.559c0,1.406,1.146,2.555,2.554,2.555c1.408,0,2.554,-1.146,2.554,-2.555C16.101,45.465,14.957,44.321,13.549,44.321zM13.549,48.682c-1,0,-1.812,-0.811,-1.812,-1.811c0,-0.998,0.812,-1.813,1.812,-1.813c0.998,0,1.812,0.813,1.812,1.813S14.547,48.682,13.549,48.682z" />
          </g>
          <g
             id="_x30_.2.2.2">
            <path
               id="_x30_.2.2.2.0"
               fill="#9A916C"
               d="M20.749,44.321c-1.405,0,-2.554,1.146,-2.554,2.559c0,1.406,1.146,2.555,2.554,2.555s2.554,-1.146,2.554,-2.555C23.302,45.465,22.157,44.321,20.749,44.321zM20.749,48.682c-1,0,-1.812,-0.811,-1.812,-1.811c0,-0.998,0.812,-1.813,1.812,-1.813c0.998,0,1.812,0.813,1.812,1.813S21.747,48.682,20.749,48.682z" />
          </g>
          <g
             id="_x30_.2.2.3">
            <path
               id="_x30_.2.2.3.0"
               fill="#9A916C"
               d="M27.949,44.321c-1.405,0,-2.554,1.146,-2.554,2.559c0,1.406,1.146,2.555,2.554,2.555c1.408,0,2.554,-1.146,2.554,-2.555C30.502,45.465,29.357,44.321,27.949,44.321zM27.949,48.682c-1,0,-1.812,-0.811,-1.812,-1.811c0,-0.998,0.812,-1.813,1.812,-1.813c0.998,0,1.812,0.813,1.812,1.813S28.947,48.682,27.949,48.682z" />
          </g>
          <g
             id="_x30_.2.2.4">
            <path
               id="_x30_.2.2.4.0"
               fill="#9A916C"
               d="M35.149,44.321c-1.405,0,-2.554,1.146,-2.554,2.559c0,1.406,1.146,2.555,2.554,2.555c1.408,0,2.554,-1.146,2.554,-2.555C37.702,45.465,36.557,44.321,35.149,44.321zM35.149,48.682c-1,0,-1.812,-0.811,-1.812,-1.811c0,-0.998,0.812,-1.813,1.812,-1.813c0.998,0,1.812,0.813,1.812,1.813S36.147,48.682,35.149,48.682z" />
          </g>
          <g
             id="_x30_.2.2.5">
            <path
               id="_x30_.2.2.5.0"
               fill="#9A916C"
               d="M42.349,44.321c-1.405,0,-2.554,1.146,-2.554,2.559c0,1.406,1.146,2.555,2.554,2.555c1.408,0,2.554,-1.146,2.554,-2.555C44.902,45.465,43.758,44.321,42.349,44.321zM42.349,48.682c-1,0,-1.812,-0.811,-1.812,-1.811c0,-0.998,0.812,-1.813,1.812,-1.813c0.998,0,1.812,0.813,1.812,1.813S43.347,48.682,42.349,48.682z" />
          </g>
          <g
             id="_x30_.2.2.6">
            <path
               id="_x30_.2.2.6.0"
               fill="#9A916C"
               d="M49.55,44.321c-1.405,0,-2.554,1.146,-2.554,2.559c0,1.406,1.146,2.555,2.554,2.555c1.408,0,2.554,-1.146,2.554,-2.555C52.102,45.465,50.958,44.321,49.55,44.321zM49.55,48.682c-1,0,-1.812,-0.811,-1.812,-1.811c0,-0.998,0.812,-1.813,1.812,-1.813c0.998,0,1.812,0.813,1.812,1.813S50.548,48.682,49.55,48.682z" />
          </g>
          <g
             id="_x30_.2.2.7">
            <path
               id="_x30_.2.2.7.0"
               fill="#9A916C"
               d="M56.75,44.321c-1.404,0,-2.555,1.146,-2.555,2.559c0,1.406,1.146,2.555,2.555,2.555s2.555,-1.146,2.555,-2.555C59.303,45.465,58.158,44.321,56.75,44.321zM56.75,48.682c-1,0,-1.813,-0.811,-1.813,-1.811c0,-0.998,0.813,-1.813,1.813,-1.813c0.998,0,1.813,0.813,1.813,1.813S57.748,48.682,56.75,48.682z" />
          </g>
          <g
             id="_x30_.2.2.8">
            <path
               id="_x30_.2.2.8.0"
               fill="#9A916C"
               d="M63.95,44.321c-1.405,0,-2.554,1.146,-2.554,2.559c0,1.406,1.146,2.555,2.554,2.555c1.407,0,2.554,-1.146,2.554,-2.555C66.503,45.465,65.357,44.321,63.95,44.321zM63.95,48.682c-1,0,-1.812,-0.811,-1.812,-1.811c0,-0.998,0.812,-1.813,1.812,-1.813c0.997,0,1.812,0.813,1.812,1.813S64.947,48.682,63.95,48.682z" />
          </g>
          <g
             id="_x30_.2.2.9">
            <path
               id="_x30_.2.2.9.0"
               fill="#9A916C"
               d="M71.15,44.321c-1.405,0,-2.555,1.146,-2.555,2.559c0,1.406,1.146,2.555,2.555,2.555c1.408,0,2.554,-1.146,2.554,-2.555C73.703,45.465,72.559,44.321,71.15,44.321zM71.15,48.682c-1,0,-1.813,-0.811,-1.813,-1.811c0,-0.998,0.813,-1.813,1.813,-1.813c0.998,0,1.812,0.813,1.812,1.813S72.148,48.682,71.15,48.682z" />
          </g>
          <g
             id="_x30_.2.2.10">
            <path
               id="_x30_.2.2.10.0"
               fill="#9A916C"
               d="M78.352,44.321c-1.406,0,-2.555,1.146,-2.555,2.559c0,1.406,1.146,2.555,2.555,2.555c1.41,0,2.553,-1.146,2.553,-2.555C80.904,45.465,79.76,44.321,78.352,44.321zM78.352,48.682c-1,0,-1.813,-0.811,-1.813,-1.811c0,-0.998,0.813,-1.813,1.813,-1.813c0.998,0,1.813,0.813,1.813,1.813S79.35,48.682,78.352,48.682z" />
          </g>
          <g
             id="_x30_.2.2.11">
            <path
               id="_x30_.2.2.11.0"
               fill="#9A916C"
               d="M85.551,44.321c-1.404,0,-2.553,1.146,-2.553,2.559c0,1.406,1.146,2.555,2.553,2.555c1.408,0,2.555,-1.146,2.555,-2.555C88.104,45.465,86.959,44.321,85.551,44.321zM85.551,48.682c-1,0,-1.811,-0.811,-1.811,-1.811c0,-0.998,0.811,-1.813,1.811,-1.813c0.998,0,1.813,0.813,1.813,1.813S86.549,48.682,85.551,48.682z" />
          </g>
          <g
             id="_x30_.2.2.12">
            <path
               id="_x30_.2.2.12.0"
               fill="#9A916C"
               d="M92.752,44.321c-1.406,0,-2.555,1.146,-2.555,2.559c0,1.406,1.146,2.555,2.555,2.555s2.553,-1.146,2.553,-2.555C95.305,45.465,94.16,44.321,92.752,44.321zM92.752,48.682c-1,0,-1.813,-0.811,-1.813,-1.811c0,-0.998,0.813,-1.813,1.813,-1.813c0.998,0,1.811,0.813,1.811,1.813S93.75,48.682,92.752,48.682z" />
          </g>
          <g
             id="_x30_.2.2.13">
            <path
               id="_x30_.2.2.13.0"
               fill="#9A916C"
               d="M99.951,44.321c-1.404,0,-2.553,1.146,-2.553,2.559c0,1.406,1.146,2.555,2.553,2.555c1.408,0,2.555,-1.146,2.555,-2.555C102.504,45.465,101.359,44.321,99.951,44.321zM99.951,48.682c-1,0,-1.811,-0.811,-1.811,-1.811c0,-0.998,0.811,-1.813,1.811,-1.813c0.998,0,1.813,0.813,1.813,1.813S100.949,48.682,99.951,48.682z" />
          </g>
        </g>
      </g>
      <g
         id="_x30_.3">
        <polygon
           id="_x30_.3.0"
           points="0.035,34.735,0.035,15.892,17.16,15.892,17.16,34.737"
           fill="#B3B3B3" />
        <rect
           width="3.041"
           id="_x30_.3.1"
           y="34.936"
           height="1.83"
           fill="#666666"
           x="7.504" />
        <rect
           width="3.041"
           id="_x30_.3.2"
           y="13.832"
           height="1.829"
           fill="#666666"
           x="7.504" />
        <rect
           width="0.13"
           id="_x30_.3.3"
           y="15.892"
           height="18.845"
           fill="#CCCCCC"
           x="17.03" />
        <rect
           width="16.853"
           id="_x30_.3.4"
           y="20.152"
           height="10.292"
           fill="#333333"
           x="0.307" />
        <rect
           width="0.576"
           id="_x30_.3.5"
           y="14.658"
           height="1.003"
           fill="#B3B3B3" />
        <rect
           width="0.576"
           id="_x30_.3.6"
           y="15.021"
           height="0.646"
           fill="#CCCCCC" />
        <rect
           width="0.576"
           id="_x30_.3.7"
           y="34.934"
           height="1.002"
           fill="#B3B3B3" />
        <rect
           width="0.576"
           id="_x30_.3.8"
           y="34.934"
           height="0.646"
           fill="#CCCCCC" />
        <path
           id="_x30_.3.9"
           fill="#CCCCCC"
           d="M16.593,15.661l0.567,0.229l0,2.534c0,0,-0.113,-2.302,-0.283,-2.384s-0.284,0.106,-0.284,0.106L16.593,15.661z" />
        <path
           id="_x30_.3.10"
           fill="#CCCCCC"
           d="M16.593,34.936l0.566,-0.229l0,-2.533c0,0,-0.113,2.301,-0.283,2.383s-0.283,-0.105,-0.283,-0.105L16.593,34.936z" />
        <path
           id="_x30_.3.11"
           fill="#E6E6E6"
           d="M16.593,31.547l-1.066,0l0,-1.605l1.634,0l0,-0.461l-0.566,0l0,-8.36l0.566,0l0,-0.525l-1.635,0L15.526,18.99l1.067,0l0,-3.321L0.153,15.669l0,19.271l16.44,0L16.593,31.547zM3.303,20.592L2.489,20.592l0,-1.593L3.37,18.999c0.277,-0.426,0.76,-0.708,1.307,-0.708c0.598,0,1.105,0.219,1.369,0.708l0,0l4.48,0l0,1.592L6.043,20.591c-0.264,0.488,-0.773,0.825,-1.371,0.825C4.076,21.416,3.567,21.08,3.303,20.592zM3.303,31.479L2.489,31.479l0,-1.592L3.37,29.887c0.277,-0.426,0.76,-0.707,1.307,-0.707c0.598,0,1.105,0.217,1.369,0.707l0,0l4.48,0l0,1.592L6.043,31.479c-0.264,0.49,-0.773,0.826,-1.371,0.826C4.076,32.305,3.567,31.971,3.303,31.479z" />
        <polygon
           id="_x30_.3.12"
           points="0.151,16.066,0.151,15.661,16.593,15.661,16.593,17.191"
           fill="#F2F2F2" />
        <polygon
           id="_x30_.3.13"
           points="0.151,34.936,11.129,34.368,16.593,33.799,16.593,34.936"
           fill="#999999" />
        <rect
           width="0.131"
           id="_x30_.3.14"
           y="18.999"
           height="1.592"
           fill="#CCCCCC"
           x="10.395" />
        <rect
           width="0.131"
           id="_x30_.3.15"
           y="29.889"
           height="1.592"
           fill="#CCCCCC"
           x="10.395" />
        <rect
           width="0.66"
           id="_x30_.3.16"
           y="16.605"
           height="17.391"
           fill="#B3B3B3"
           x="0.354" />
        <rect
           width="0.313"
           id="_x30_.3.17"
           y="16.605"
           height="17.391"
           fill="#CCCCCC"
           x="0.151" />
      </g>
      <rect
         width="28.347"
         id="_x30_.5"
         y="11.149"
         height="28.351"
         fill="#333333"
         x="51.449" />
      <rect
         width="5.779"
         id="_x30_.6"
         y="36.834"
         height="5.773"
         fill="#333333"
         x="90.197" />
      <rect
         width="5.778"
         id="_x30_.7"
         y="9.311"
         height="5.778"
         fill="#333333"
         x="17.86" />
      <rect
         width="11.14"
         id="_x30_.8"
         y="30.007"
         height="11.139"
         fill="#333333"
         x="17.86" />
      <rect
         width="2.101"
         id="_x30_.9"
         y="37.168"
         height="4.289"
         fill="#333333"
         x="84.005" />
      <rect
         width="4.289"
         id="_x30_.10"
         y="40.408"
         height="2.101"
         fill="#333333"
         x="78.791" />
      <rect
         width="4.289"
         id="_x30_.11"
         y="11.149"
         height="2.104"
         fill="#333333"
         x="88.887" />
      <rect
         width="2.101"
         id="_x30_.12"
         y="7.416"
         height="3.729"
         fill="#333333"
         x="48.692" />
      <rect
         width="2.101"
         id="_x30_.13"
         y="7.416"
         height="3.729"
         fill="#333333"
         x="45.946" />
      <rect
         width="2.101"
         id="_x30_.14"
         y="38.542"
         height="3.729"
         fill="#333333"
         x="30.05" />
      <g
         id="_x30_.15">
        <g
           id="_x30_.15.0">
          <rect
             width="2.101"
             id="_x30_.15.0.0"
             y="17.146"
             height="3.733"
             fill="#333333"
             x="27.949" />
        </g>
        <g
           id="_x30_.15.1">
          <rect
             width="2.101"
             id="_x30_.15.1.0"
             y="21.128"
             height="6.221"
             fill="#333333"
             x="18.702" />
        </g>
        <g
           id="_x30_.15.2">
          <rect
             width="2.101"
             id="_x30_.15.2.0"
             y="17.146"
             height="3.733"
             fill="#333333"
             x="31.925" />
        </g>
        <g
           id="_x30_.15.3">
          <rect
             width="2.101"
             id="_x30_.15.3.0"
             y="17.146"
             height="4.703"
             fill="#333333"
             x="35.901" />
        </g>
        <g
           id="_x30_.15.4">
          <rect
             width="2.101"
             id="_x30_.15.4.0"
             y="17.146"
             height="3.733"
             fill="#333333"
             x="39.877" />
        </g>
        <g
           id="_x30_.15.5">
          <rect
             width="2.101"
             id="_x30_.15.5.0"
             y="17.146"
             height="3.733"
             fill="#333333"
             x="43.853" />
        </g>
      </g>
      <rect
         width="5.704"
         id="_x30_.16"
         y="8.368"
         height="2.101"
         fill="#333333"
         x="88.887" />
      <rect
         width="5.704"
         id="_x30_.17"
         y="8.368"
         height="2.101"
         fill="#333333"
         x="82.203" />
      <rect
         width="4.093"
         id="_x30_.18"
         y="16.141"
         height="2.104"
         fill="#333333"
         x="18.702" />
      <rect
         width="11.586"
         id="_x30_.19"
         y="33.554"
         height="6.088"
         fill="#333333"
         x="34.379" />
      <rect
         width="4.093"
         id="_x30_.20"
         y="21.198"
         height="2.101"
         fill="#333333"
         x="22.139" />
      <rect
         width="4.093"
         id="_x30_.21"
         y="24.339"
         height="2.101"
         fill="#333333"
         x="22.139" />
      <rect
         width="4.093"
         id="_x30_.22"
         y="38.672"
         height="2.102"
         fill="#333333"
         x="5.742" />
      <rect
         width="4.093"
         id="_x30_.23"
         y="30.007"
         height="2.102"
         fill="#333333"
         x="41.853" />
      <g
         id="_x30_.24">
        <polygon
           id="_x30_.24.0"
           points="88.785,23.096,88.932,23.096,88.932,27.503,88.785,27.503,88.785,30.833,95.088,30.833,95.088,19.766,88.785,19.766"
           fill="#CCCCCC" />
        <polygon
           id="_x30_.24.1"
           points="96.098,27.503,95.953,27.503,95.953,23.096,96.098,23.096,96.098,19.766,89.842,19.766,89.842,30.833,96.098,30.833"
           fill="#CCCCCC" />
        <circle
           cx="92.441"
           cy="25.3"
           r="2.316"
           id="_x30_.24.2" />
        <path
           id="_x30_.24.3"
           enable-background="new    "
           opacity="0.2"
           d="M92.553,27.617c1.281,0,2.318,-1.038,2.318,-2.316c0,-1.279,-1.037,-2.316,-2.318,-2.316l-0.111,0c1.281,0,2.316,1.036,2.316,2.316c0,1.278,-1.035,2.316,-2.316,2.316L92.553,27.617z" />
        <circle
           cx="92.441"
           cy="25.3"
           r="2.232"
           id="_x30_.24.4"
           fill="#1A1A1A" />
        <circle
           cx="92.389"
           cy="25.3"
           r="2.232"
           id="_x30_.24.5"
           fill="#333333" />
        <path
           id="_x30_.24.6"
           enable-background="new    "
           opacity="0.2"
           d="M92.494,27.532c1.232,0,2.232,-0.999,2.232,-2.231c0,-1.233,-1,-2.233,-2.232,-2.233l-0.105,0c1.232,0,2.232,1.001,2.232,2.233s-1,2.231,-2.232,2.231L92.494,27.532z" />
        <path
           id="_x30_.24.7"
           enable-background="new    "
           opacity="0.2"
           fill="#FFFFFF"
           d="M92.494,23.067c-1.232,0,-2.232,1.001,-2.232,2.233s1,2.231,2.232,2.231l-0.105,0c-1.23,0,-2.229,-0.999,-2.229,-2.231c0,-1.233,0.999,-2.233,2.229,-2.233L92.494,23.067z" />
        <rect
           width="0.146"
           id="_x30_.24.8"
           enable-background="new    "
           y="19.765"
           opacity="0.2"
           height="3.331"
           fill="#FFFFFF"
           x="88.785" />
        <rect
           width="0.146"
           id="_x30_.24.9"
           enable-background="new    "
           y="27.503"
           opacity="0.2"
           height="3.33"
           fill="#FFFFFF"
           x="88.785" />
        <rect
           width="0.146"
           id="_x30_.24.10"
           enable-background="new    "
           y="23.096"
           opacity="0.2"
           height="4.407"
           fill="#FFFFFF"
           x="88.932" />
        <rect
           width="0.146"
           id="_x30_.24.11"
           enable-background="new    "
           y="19.765"
           opacity="0.2"
           height="3.331"
           x="95.945" />
        <rect
           width="0.146"
           id="_x30_.24.12"
           enable-background="new    "
           y="27.503"
           opacity="0.2"
           height="3.33"
           x="95.945" />
        <rect
           width="0.146"
           id="_x30_.24.13"
           enable-background="new    "
           y="23.096"
           opacity="0.2"
           height="4.407"
           x="95.799" />
      </g>
      <g
         id="_x30_.26">
        <circle
           stroke-width="1.224"
           cx="99.941"
           cy="3.723"
           r="1.908"
           stroke="#9A916C"
           id="connector19pin"
           fill="none" />
        <circle
           stroke-width="1.224"
           cx="92.742"
           cy="3.723"
           r="1.908"
           stroke="#9A916C"
           id="connector20pin"
           fill="none" />
        <circle
           stroke-width="1.224"
           cx="85.542"
           cy="3.723"
           r="1.908"
           stroke="#9A916C"
           id="connector21pin"
           fill="none" />
        <circle
           stroke-width="1.224"
           cx="78.342"
           cy="3.723"
           r="1.908"
           stroke="#9A916C"
           id="connector22pin"
           fill="none" />
        <circle
           stroke-width="1.224"
           cx="71.143"
           cy="3.723"
           r="1.908"
           stroke="#9A916C"
           id="connector23pin"
           fill="none" />
        <circle
           stroke-width="1.224"
           cx="63.941"
           cy="3.723"
           r="1.908"
           stroke="#9A916C"
           id="connector24pin"
           fill="none" />
        <circle
           stroke-width="1.224"
           cx="56.743"
           cy="3.723"
           r="1.908"
           stroke="#9A916C"
           id="connector25pin"
           fill="none" />
        <circle
           stroke-width="1.224"
           cx="49.542"
           cy="3.723"
           r="1.908"
           stroke="#9A916C"
           id="connector26pin"
           fill="none" />
        <circle
           stroke-width="1.224"
           cx="42.342"
           cy="3.723"
           r="1.908"
           stroke="#9A916C"
           id="connector27pin"
           fill="none" />
        <circle
           stroke-width="1.224"
           cx="35.143"
           cy="3.723"
           r="1.908"
           stroke="#9A916C"
           id="connector28pin"
           fill="none" />
        <circle
           stroke-width="1.224"
           cx="27.942"
           cy="3.723"
           r="1.908"
           stroke="#9A916C"
           id="connector29pin"
           fill="none" />
        <circle
           stroke-width="1.224"
           cx="20.742"
           cy="3.723"
           r="1.908"
           stroke="#9A916C"
           id="connector30pin"
           fill="none" />
        <circle
           stroke-width="1.224"
           cx="13.542"
           cy="3.723"
           r="1.908"
           stroke="#9A916C"
           id="connector31pin"
           fill="none" />
        <circle
           stroke-width="1.224"
           cx="6.342"
           cy="3.723"
           r="1.908"
           stroke="#9A916C"
           id="connector32pin"
           fill="none" />
        <circle
           stroke-width="1.224"
           cx="13.542"
           cy="11.949"
           r="1.908"
           stroke="#9A916C"
           id="connector36pin"
           fill="none" />
        <circle
           stroke-width="1.224"
           cx="35.149"
           cy="11.949"
           r="1.908"
           stroke="#9A916C"
           id="connector34pin"
           fill="none" />
        <circle
           stroke-width="1.224"
           cx="27.942"
           cy="11.949"
           r="1.908"
           stroke="#9A916C"
           id="connector35pin"
           fill="none" />
        <circle
           stroke-width="1.224"
           cx="99.941"
           cy="46.922"
           r="1.908"
           stroke="#9A916C"
           id="connector13pin"
           fill="none" />
        <circle
           stroke-width="1.224"
           cx="92.742"
           cy="46.922"
           r="1.908"
           stroke="#9A916C"
           id="connector12pin"
           fill="none" />
        <circle
           stroke-width="1.224"
           cx="85.542"
           cy="46.922"
           r="1.908"
           stroke="#9A916C"
           id="connector11pin"
           fill="none" />
        <circle
           stroke-width="1.224"
           cx="78.342"
           cy="46.922"
           r="1.908"
           stroke="#9A916C"
           id="connector10pin"
           fill="none" />
        <circle
           stroke-width="1.224"
           cx="71.143"
           cy="46.922"
           r="1.908"
           stroke="#9A916C"
           id="connector9pin"
           fill="none" />
        <circle
           stroke-width="1.224"
           cx="63.941"
           cy="46.922"
           r="1.908"
           stroke="#9A916C"
           id="connector8pin"
           fill="none" />
        <circle
           stroke-width="1.224"
           cx="56.743"
           cy="46.922"
           r="1.908"
           stroke="#9A916C"
           id="connector7pin"
           fill="none" />
        <circle
           stroke-width="1.224"
           cx="49.542"
           cy="46.922"
           r="1.908"
           stroke="#9A916C"
           id="connector6pin"
           fill="none" />
        <circle
           stroke-width="1.224"
           cx="42.342"
           cy="46.922"
           r="1.908"
           stroke="#9A916C"
           id="connector5pin"
           fill="none" />
        <circle
           stroke-width="1.224"
           cx="35.143"
           cy="46.922"
           r="1.908"
           stroke="#9A916C"
           id="connector4pin"
           fill="none" />
        <circle
           stroke-width="1.224"
           cx="27.942"
           cy="46.922"
           r="1.908"
           stroke="#9A916C"
           id="connector3pin"
           fill="none" />
        <circle
           stroke-width="1.224"
           cx="20.742"
           cy="46.922"
           r="1.908"
           stroke="#9A916C"
           id="connector2pin"
           fill="none" />
        <circle
           stroke-width="1.224"
           cx="13.542"
           cy="46.922"
           r="1.908"
           stroke="#9A916C"
           id="connector1pin"
           fill="none" />
        <circle
           stroke-width="1.224"
           cx="6.342"
           cy="46.922"
           r="1.908"
           stroke="#9A916C"
           id="connector0pin"
           fill="none" />
        <circle
           stroke-width="1.224"
           cx="42.349"
           cy="11.95"
           r="1.908"
           stroke="#9A916C"
           id="connector33pin"
           fill="none" />
        <circle
           stroke-width="1.224"
           cx="99.943"
           cy="32.523"
           r="1.908"
           stroke="#9A916C"
           id="connector15pin"
           fill="none" />
        <circle
           stroke-width="1.224"
           cx="99.941"
           cy="39.723"
           r="1.908"
           stroke="#9A916C"
           id="connector14pin"
           fill="none" />
        <circle
           stroke-width="1.224"
           cx="99.943"
           cy="25.323"
           r="1.908"
           stroke="#9A916C"
           id="connector16pin"
           fill="none" />
        <circle
           stroke-width="1.224"
           cx="99.941"
           cy="10.923"
           r="1.908"
           stroke="#9A916C"
           id="connector18pin"
           fill="none" />
        <circle
           stroke-width="1.224"
           cx="99.943"
           cy="18.122"
           r="1.908"
           stroke="#9A916C"
           id="connector17pin"
           fill="none" />
        <circle
           stroke-width="0.5"
           cx="40.054"
           cy="22.724"
           r="1.417"
           stroke="#9A916C"
           id="_x30_.26.37"
           fill="none" />
        <circle
           stroke-width="0.5"
           cx="43.901"
           cy="22.724"
           r="1.417"
           stroke="#9A916C"
           id="connector16pin_1_"
           fill="none" />
      </g>
      <g
         transform="matrix(1, 0, 0, 1, 53.1504, 43.1858)"
         id="g7804">
        <g
           id="g7806">
          <g
             id="g7808">
            <g
               id="g7810">
              <g
                 id="g7812">
                <g
                   id="g156">
                  <g
                     id="g158">
                    <g
                       id="_x30_.25_1_">
                      <g
                         id="_x30_.25">
                        <g
                           id="_x30_.25.0">
                          <g
                             transform="matrix(1, 0, 0, 1, 0, -6.2002)"
                             id="g7819">
                            <text
                               id="_x30_.25.0.0"
                               font-size="3.8634"
                               style="font-size:3.86339998px;font-family:OCRA;fill:#c8c8c8">teensy3.2</text>
                          </g>
                        </g>
                      </g>
                    </g>
                  </g>
                </g>
              </g>
            </g>
          </g>
        </g>
      </g>
    </g>
  </g>
</svg>
